<?xml version="1.0" encoding="UTF-8"?>
<svg viewBox="0 0 303 294" xmlns="http://www.w3.org/2000/svg">
 <g fill-rule="evenodd">
  <path d="m17.719 21.533c15.761-5.4084 31.587-10.469 47.904-14.028 15.042-3.281 30.397-5.1653 45.741-5.8555 18.327-0.82434 36.875-1.6487 55.061 0.61244 14.295 1.7775 28.641 3.5375 42.357 8.4169 9.9262 3.5314 18.174 10.033 26.615 15.984 8.4102 5.9301 16.919 12.716 22.295 21.478 2.7678 4.5117 5.9564 10.473 1.8735 15.425-3.9705 4.8154-9.5299 10.416-7.1562 17.242 2.5896 7.4473 11.024 10.789 17.77 13.905 12.118 5.5978 24.608 13.598 28.738 26.99 4.2907 13.915-3.1226 29.202-9.0396 39.915s-8.8157 20.842-13.486 29.28c-4.6702 8.4375-2.9448 16.335-4.5545 24.357-0.96356 4.8019-3.0679 9.0528-3.7425 13.992-1.2539 9.1813-1.874 18.65-1.9786 27.99-0.11389 10.176-3.0465 22.491-11.112 27.303-3.3292 1.9863-2.7965-8.8417-0.11896-11.83 3.517-3.9247 8.0955-10.186 3.7432-15.315-6.9265-8.1617-19.011-7.3607-28.594-10.239-10.07-3.0252-22.291-3.6394-29.679-11.641-4.6911-5.0807 0.87836-12.53 5.4654-15.647 4.0082-2.7243 9.2191-5.8721 2.4448-9.3008-6.042-3.058-13.04-2.8422-19.607-3.2587-23.922-1.5173-48.029-0.3234-72.028 0.12149-25.318 0.46933-49.733 7.8652-73.765 15.261-8.3815-67.052-16.763-134.1-25.144-201.16z" fill="#d60000" stroke="#000" stroke-width="3"/>
  <path transform="rotate(3.2993 38.308 154.89)" d="m57.896 291.86l-50.004-273.57 1.4601-1.0446 7.3843-0.3799 12.136 61.338 39.849 212.51-1.282 1.3296-7.2647 0.8546-2.2791-1.0446z" fill="#501a08"/>
 </g>
</svg>
